          <svg viewBox="0 0 48 48" version="1.1" xmlns="http://www.w3.org/2000/svg" xmlns:xlink="http://www.w3.org/1999/xlink">
          <g id="logo-LOP" stroke="none" stroke-width="1" fill="#000" fill-rule="evenodd">
          <g id="logo-lop">
          <g id="lop-logo-noir">
          <polygon id="shape-l" points="0 0 0 43.9864198 43.7165644 43.9864198 43.7165644 39.9123457 4.04907975 39.9123457 4.04907975 0">
          </polygon>
          <path d="M22.8719018,36.797037 C18.5484948,36.797037 15.043681,33.2705885 15.043681,28.9204938 C15.043681,24.5703991 18.5484948,21.0439506 22.8719018,21.0439506 C27.1953088,21.0439506 30.7001227,24.5703991 30.7001227,28.9204938 C30.7001227,33.2705885 27.1953088,36.797037 22.8719018,36.797037 M22.8719018,25.137037 C20.7847398,25.137037 19.0927607,26.8394605 19.0927607,28.9395062 C19.0927607,31.0395519 20.7847398,32.7419753 22.8719018,32.7419753 C24.9590638,32.7419753 26.6510429,31.0395519 26.6510429,28.9395062 C26.6510429,26.8394605 24.9590638,25.137037 22.8719018,25.137037" id="shape-o">
          </path>
          <path d="M39.802454,0.0950617284 L8.99165644,0.0950617284 L8.99165644,17.382716 L39.802454,17.382716 L39.802454,33.4074074 L43.8515337,33.4074074 L43.8515337,0.0950617284 L39.802454,0.0950617284 Z M13.0407362,4.1691358 L39.802454,4.1691358 L39.802454,13.308642 L13.0407362,13.308642 L13.0407362,4.1691358 Z" id="shape-p">
          </path>
          </g>
          <g class="lop-font">
          <path d="M72.738,44 L72.738,41.804 L66.816,41.804 L66.816,31.238 L64.494,31.238 L64.494,44 L72.738,44 Z M76.68,33.344 L76.68,31.022 L74.268,31.022 L74.268,33.344 L76.68,33.344 Z M76.626,44 L76.626,34.64 L74.34,34.64 L74.34,44 L76.626,44 Z M82.17,44 L82.17,36.494 L84.672,36.494 L84.672,34.64 L82.17,34.64 L82.17,33.776 C82.17,33.11 82.584,32.642 83.394,32.642 C83.988,32.642 84.402,32.696 84.87,32.786 L84.87,30.986 C84.168,30.842 83.754,30.788 83.106,30.788 C81.09,30.788 79.92,32.012 79.92,33.74 L79.92,34.64 L78.336,34.64 L78.336,36.494 L79.92,36.494 L79.92,44 L82.17,44 Z M90.018,44.234 C91.206,44.234 92.376,43.856 93.168,42.92 C93.528,42.488 93.906,41.75 93.96,41.192 L91.8,41.192 C91.71,41.534 91.548,41.786 91.35,41.984 C91.026,42.308 90.63,42.434 89.982,42.434 C89.37,42.434 88.92,42.164 88.596,41.858 C88.146,41.426 87.894,40.742 87.912,40.022 L94.176,40.022 C94.176,39.824 94.194,39.392 94.194,39.392 C94.23,38.222 94.068,37.16 93.384,36.134 C92.61,34.964 91.35,34.406 89.964,34.406 C88.686,34.406 87.678,34.874 86.976,35.594 C86.076,36.512 85.626,37.844 85.626,39.338 C85.626,40.868 86.13,42.182 87.066,43.082 C87.804,43.784 88.74,44.234 90.018,44.234 Z M91.944,38.384 L87.894,38.384 C87.912,37.772 88.056,37.34 88.38,36.926 C88.704,36.494 89.262,36.206 89.946,36.206 C90.594,36.206 91.062,36.422 91.368,36.746 C91.728,37.142 91.926,37.682 91.944,38.384 Z M103.788,44.234 C105.21,44.234 106.416,43.568 107.064,42.776 C107.766,41.894 108.162,40.904 108.162,39.32 C108.162,37.736 107.766,36.746 107.064,35.864 C106.416,35.072 105.21,34.406 103.788,34.406 C102.366,34.406 101.16,35.072 100.512,35.864 C99.81,36.746 99.414,37.736 99.414,39.32 C99.414,40.904 99.81,41.894 100.512,42.776 C101.16,43.568 102.366,44.234 103.788,44.234 Z M103.788,42.272 C103.176,42.272 102.672,42.002 102.366,41.678 C101.826,41.084 101.7,40.202 101.7,39.32 C101.7,38.438 101.826,37.556 102.366,36.962 C102.672,36.638 103.176,36.368 103.788,36.368 C104.4,36.368 104.904,36.638 105.21,36.962 C105.75,37.556 105.876,38.438 105.876,39.32 C105.876,40.202 105.75,41.084 105.21,41.678 C104.904,42.002 104.4,42.272 103.788,42.272 Z M113.04,44 L113.04,36.494 L115.542,36.494 L115.542,34.64 L113.04,34.64 L113.04,33.776 C113.04,33.11 113.454,32.642 114.264,32.642 C114.858,32.642 115.272,32.696 115.74,32.786 L115.74,30.986 C115.038,30.842 114.624,30.788 113.976,30.788 C111.96,30.788 110.79,32.012 110.79,33.74 L110.79,34.64 L109.206,34.64 L109.206,36.494 L110.79,36.494 L110.79,44 L113.04,44 Z M123.156,47.582 L123.156,43.316 C123.588,43.838 124.488,44.234 125.604,44.234 C126.558,44.234 127.314,43.946 127.89,43.478 C129.006,42.56 129.564,41.138 129.564,39.302 C129.564,37.538 129.006,36.134 127.89,35.216 C127.314,34.748 126.558,34.424 125.622,34.424 C124.596,34.424 123.552,34.802 122.994,35.666 L122.85,34.64 L120.906,34.64 L120.906,47.582 L123.156,47.582 Z M125.172,42.344 C123.408,42.344 123.048,40.688 123.048,39.338 C123.048,37.988 123.408,36.314 125.172,36.314 C125.874,36.314 126.36,36.638 126.684,37.052 C127.152,37.664 127.278,38.528 127.278,39.338 C127.278,40.148 127.152,40.994 126.684,41.606 C126.36,42.02 125.874,42.344 125.172,42.344 Z M134.1,33.344 L134.1,31.022 L131.688,31.022 L131.688,33.344 L134.1,33.344 Z M134.046,44 L134.046,34.64 L131.76,34.64 L131.76,44 L134.046,44 Z M138.006,44 L140.058,40.868 L142.146,44 L144.684,44 L141.48,39.248 L144.702,34.64 L142.236,34.64 L140.202,37.664 L138.114,34.64 L135.522,34.64 L138.816,39.23 L135.54,44 L138.006,44 Z" id="Lifeofpix" class="">
          </path>
          </g>
          </g>
          </g>
          </svg>
