<svg xmlns="http://www.w3.org/2000/svg" width="41" height="40" viewBox="0 0 41 40" fill="none">
  <path fillRule="evenodd" clip-rule="evenodd" d="M9.51274 7.64706H6.03168V6H10.8935L11.9239 11.3399L33.9803 10.9253V20.2699C34.0807 20.6219 34.0597 21.0928 33.6809 21.4905C33.2741 21.9177 32.6266 22.0588 31.8946 22.0588H13.9923L14.3484 23.9042C14.4595 24.2048 14.7191 24.6731 15.1367 25.0645C15.5626 25.4636 16.1301 25.7647 16.8774 25.7647H33.146V27.4118H16.8774C15.6225 27.4118 14.6605 26.8893 13.9879 26.259C13.3294 25.642 12.9266 24.9045 12.7488 24.3781L12.7312 24.3258L9.51274 7.64706ZM13.6745 20.4118H31.8946C32.0782 20.4118 32.2141 20.3992 32.3117 20.383V12.6041L12.2406 12.9813L13.6745 20.4118Z" fill="#272727"/>
  <path d="M18.546 31.5294C18.546 32.8939 17.4254 34 16.0431 34C14.6608 34 13.5403 32.8939 13.5403 31.5294C13.5403 30.1649 14.6608 29.0588 16.0431 29.0588C17.4254 29.0588 18.546 30.1649 18.546 31.5294Z" fill="#272727"/>
  <path d="M30.226 34C31.6083 34 32.7289 32.8939 32.7289 31.5294C32.7289 30.1649 31.6083 29.0588 30.226 29.0588C28.8437 29.0588 27.7232 30.1649 27.7232 31.5294C27.7232 32.8939 28.8437 34 30.226 34Z" fill="#272727"/>
</svg>