<svg xmlns="http://www.w3.org/2000/svg" width="40" height="40" viewBox="0 0 40 40" fill="none">
  <path fill-rule="evenodd" clip-rule="evenodd" d="M23.0723 24.5333C21.8108 25.4812 20.2413 26.043 18.5403 26.043C14.3759 26.043 11 22.6755 11 18.5215C11 14.3675 14.3759 11 18.5403 11C22.7046 11 26.0805 14.3675 26.0805 18.5215C26.0805 20.4068 25.3851 22.1301 24.2363 23.4501L29 27.8365L27.9233 29L23.0723 24.5333ZM24.4931 18.5215C24.4931 21.801 21.8279 24.4595 18.5403 24.4595C15.2526 24.4595 12.5874 21.801 12.5874 18.5215C12.5874 15.242 15.2526 12.5835 18.5403 12.5835C21.8279 12.5835 24.4931 15.242 24.4931 18.5215Z" fill="#0074E9"/>
</svg>